<svg xmlns="http://www.w3.org/2000/svg" viewBox="0 0 106.96 106.96"><defs><style>.cls-1{fill:#5a6d6d;}</style></defs><title>Asset 1</title><g id="Layer_2" data-name="Layer 2"><g id="Layer_1-2" data-name="Layer 1"><path class="cls-1" d="M62.55.75a53.5,53.5,0,1,0,43.66,43.66A53.57,53.57,0,0,0,62.55.75Zm-1,99.49a47.45,47.45,0,1,1,38.71-38.71A47.51,47.51,0,0,1,61.53,100.24ZM76.69,53.48a3,3,0,0,1-3,3H56.51V73.66a3,3,0,0,1-6.06,0V56.51H33.3a3,3,0,0,1,0-6.06H50.45V33.3a3,3,0,0,1,6.06,0V50.45H73.66A3,3,0,0,1,76.69,53.48Z"/></g></g></svg>